PathFileType	4	(X/Y/Z)	C:/Users/beibeiliu/ov580/test_trc\sequence.18_training_dense_left.trc
DataRate	CameraRate	NumFrames	NumMarkers	Units	OrigDataRate	OrigDataStartFrame	OrigNumFrames
120	120	11	19	mm	120	43	336
Frame#	Time	ThumbCMC			ThumbMCP			ThumbIP			ThumbTip			IndexMCP			IndexPIP			IndexTip			MiddleMCP			MiddlePIP			MiddleTip			RingMCP			RingPIP			RingTip			PinkyMCP			PinkyPIP			PinkyTip			BackHand1			BackHand2			BackHand3	
		X0	Y0	Z0	X1	Y1	Z1	X2	Y2	Z2	X3	Y3	Z3	X4	Y4	Z4	X5	Y5	Z5	X6	Y6	Z6	X7	Y7	Z7	X8	Y8	Z8	X9	Y9	Z9	X10	Y10	Z10	X11	Y11	Z11	X12	Y12	Z12	X13	Y13	Z13	X14	Y14	Z14	X15	Y15	Z15	X16	Y16	Z16	X17	Y17	Z17	X18	Y18	Z18	
42	0.35	-190.58	5.93085	16.7245	-176.853	-4.69276	-4.84788	-174.486	-3.67355	-30.5904	-173.458	-6.73591	-49.8335	-193.171	47.7793	-31.9858	-192.688	40.2207	-61.2128	-193.34	9.65061	-59.2746	-216.226	50.1014	-43.2344	-215.448	36.8358	-68.1208	-208.918	6.11954	-54.4453	-235.266	41.5352	-37.3827	-231.151	27.5668	-62.1119	-222.543	3.40751	-52.0472	-251.431	32.1937	-31.4426	-242.847	22.8088	-53.3152	-231.015	0.127223	-50.987	-236.634	32.3869	10.218	-237.257	23.0685	32.8247	-211.62	30.2233	23.1016	
43	0.358333	-189.639	2.29868	17.092	-182.421	-6.99207	-7.58983	-175.617	-10.1168	-27.9814	-175.83	-12.2091	-54.8569	-195.231	45.8397	-35.4665	-189.189	42.1732	-61.8511	-194.493	12.8535	-66.5759	-215.259	48.4234	-40.3052	-211.204	37.0284	-70.2013	-213.442	8.31895	-60.1825	-230.96	44.6816	-40.2512	-229.387	33.5543	-62.4764	-227.971	3.82603	-55.8909	-246.152	36.4828	-32.4793	-244.084	27.0499	-53.7182	-234.976	4.86779	-55.4532	-232.228	35.5886	6.93202	-238.116	26.2672	32.2886	-207.404	28.9689	22.3435	
44	0.366667	-193.813	-0.0140267	17.4657	-181.522	-13.4194	-8.81563	-174.392	-14.6632	-34.2384	-180.151	-15.0825	-54.3447	-188.783	40.7626	-35.3492	-188.265	39.9597	-63.207	-196.622	9.10333	-67.9652	-208.053	46.6902	-40.2574	-211.285	40.6751	-69.625	-213.254	7.22204	-63.0672	-228.697	46.3641	-41.5822	-227.923	35.559	-63.6317	-229.462	5.42193	-57.9644	-244.754	37.7541	-28.878	-243.493	28.2625	-55.2884	-233.824	4.11739	-54.9304	-229.745	35.4446	7.45897	-229.528	27.8085	30.7076	-202.456	30.0892	18.1566	
45	0.375	-191.726	-2.89965	13.8597	-184.064	-15.9767	-12.6184	-181.737	-19.3815	-32.0115	-181.569	-22.675	-52.7097	-184.828	37.4185	-38.3478	-184.884	32.6242	-66.4485	-195.003	5.72494	-70.3981	-203.952	45.7608	-45.8628	-211.383	33.9285	-72.5119	-215.22	5.34172	-64.7943	-221.037	44.9407	-40.5082	-224.296	35.0167	-64.3129	-228.797	4.10969	-57.338	-241.958	41.9934	-34.0577	-243.658	32.131	-55.3301	-237.208	8.89748	-58.2414	-229.445	37.692	6.44479	-226.389	30.2605	31.9798	-201.43	27.3975	17.989	
46	0.383333	-188.485	-4.15143	10.9611	-183.496	-21.3928	-11.5872	-182.114	-24.051	-33.1144	-188.22	-24.4329	-57.0542	-181.338	32.4536	-39.968	-183.167	30.0721	-68.0388	-198.155	3.1697	-72.6393	-198.113	42.4262	-48.0751	-205.644	28.6661	-75.7126	-215.455	2.68997	-64.8539	-222.638	45.2542	-41.8401	-220.894	31.8224	-66.9891	-230.289	5.30347	-60.5268	-238.245	43.536	-35.8334	-237.897	35.8195	-55.2576	-237.19	10.4583	-56.649	-220.809	38.1541	2.86435	-224.592	31.2086	29.4349	-197.098	25.7989	15.1493	
47	0.391667	-188.158	-8.224	11.2628	-188.092	-21.5973	-12.9198	-181.043	-30.6621	-36.2231	-186.892	-34.2386	-57.2086	-177.571	28.4371	-45.6744	-178.712	22.3349	-69.6932	-194.104	-4.75424	-74.7975	-196.27	38.1733	-48.28	-204.921	27.3817	-77.0592	-213.842	-1.78125	-65.0065	-216.266	43.6133	-48.2224	-218.083	29.1083	-68.4633	-228.604	2.53179	-60.2146	-232.462	41.645	-35.0441	-235.844	32.3473	-57.9556	-235.502	6.59234	-55.1464	-218.959	36.3621	2.59346	-216.972	33.8853	24.6836	-192.941	25.5023	13.2805	
48	0.4	-188.633	-9.42165	12.9358	-188.642	-25.6684	-11.8044	-182.506	-36.633	-34.9022	-191.868	-36.0306	-57.1446	-174.076	22.3457	-46.4203	-178.491	16.1975	-73.7764	-194.853	-8.64181	-76.2029	-193.431	34.3754	-52.1225	-198.63	19.3341	-79.5751	-210.897	-6.62336	-64.195	-209.084	37.5948	-47.5676	-218.596	24.9812	-71.9168	-223.222	-0.939044	-57.5825	-229.16	42.9269	-41.5727	-230.68	28.1811	-61.6844	-233.017	6.86421	-58.1203	-214.65	38.4482	-0.323338	-214.646	34.7519	20.2577	-193.187	25.6397	11.4721	
49	0.408333	-184.743	-13.7315	8.28068	-188.035	-28.6051	-11.8339	-185.842	-39.0191	-33.4861	-192.211	-43.6306	-57.2164	-170.103	16.8569	-50.8516	-174.871	6.40683	-76.1171	-191.693	-14.9277	-76.1966	-186.614	29.7257	-56.5642	-197.034	16.5977	-80.951	-214.862	-7.35665	-63.4373	-204.903	37.1407	-52.6709	-212.711	19.1746	-73.4841	-225.389	-1.39957	-60.1958	-220.917	38.839	-38.6211	-223.74	28.7518	-62.4372	-233.584	3.0804	-59.1989	-206.073	38.5594	-5.91094	-207.774	32.5528	19.2268	-186.657	22.1055	7.54047	
50	0.416667	-185.807	-14.8092	12.7193	-187.018	-33.222	-11.7637	-187.896	-43.1187	-31.2379	-193.093	-51.5679	-54.4529	-166.88	7.29434	-47.9283	-173.869	2.35036	-77.9431	-189.916	-20.0789	-78.1916	-183.72	23.6362	-58.5757	-195.072	10.3419	-82.9924	-213.361	-9.50295	-67.1021	-199.034	32.1331	-53.2623	-211.787	15.8304	-75.3597	-223.355	-4.33814	-57.6775	-216.849	38.4348	-46.6686	-223.885	27.6725	-65.7768	-228.229	2.75905	-60.7184	-201.17	36.5912	-6.56233	-203.329	36.7438	16.002	-182.318	20.7664	5.24697	
51	0.425	-184.9	-16.2438	13.039	-187.276	-38.2529	-7.93	-189.99	-45.8489	-29.4728	-196.056	-54.2516	-54.5105	-165.567	4.17741	-51.2163	-170.952	-5.28364	-77.3399	-193.709	-25.5209	-76.3326	-180.697	17.6503	-59.8537	-189.179	4.13288	-83.9972	-213.59	-15.521	-62.6198	-194.468	26.1783	-56.4879	-206.345	9.28909	-75.7075	-222.664	-5.37957	-60.8232	-215.219	37.492	-46.5152	-220.801	19.831	-66.8651	-225.288	-0.780546	-56.1261	-196.299	33.7283	-10.5802	-201.494	36.841	14.2403	-177	17.7426	3.44272	
52	0.433333	-183.957	-12.9433	10.4764	-188.982	-34.7572	-5.33157	-188.477	-50.8851	-31.1972	-197.518	-56.765	-49.7707	-166.53	1.05596	-50.5744	-171.805	-9.23045	-76.7417	-195.301	-28.5941	-74.1664	-179.667	13.9762	-64.6576	-190.031	-2.79492	-83.7544	-209.897	-21.7219	-63.5695	-197.014	25.1578	-56.5748	-206.079	5.27811	-75.0333	-222.902	-9.89187	-57.5272	-212.828	33.6791	-49.3175	-220.342	15.1094	-66.0327	-230.713	-6.36415	-53.6856	-193.525	31.9435	-13.327	-196.915	39.2455	15.0043	-173.934	16.4561	0.641295	
